# xmcd CD database file
#
# Track frame offsets:
#	150
#	21459
#	44279
#	66144
#	84315
#	100281
#	126108
#	144941
#	160868
#	179313
#
# Disc length: 2659 seconds
#
# Revision: 1
# Processed by: cddbd v1.5.2PL0 Copyright (c) Steve Scherf et al.
# Submitted via: CDex 1.50
#
DISCID=7f0a610a
DTITLE=Tony O'Malley feat Paata Andriadze - The Mansarde Sessions
DYEAR=1900
DGENRE=Jazz
TTITLE0=It Had To Be You
TTITLE1=When I Fall In Love
TTITLE2=Autumn Leaves
TTITLE3=Stardust
TTITLE4=Cheek To Cheek
TTITLE5=Over The Rainbow
TTITLE6=Fly Me To The Moon
TTITLE7=Just One Of Those Things
TTITLE8=Peace
TTITLE9=A Song For You
EXTD=
EXTT0=
EXTT1=
EXTT2=
EXTT3=
EXTT4=
EXTT5=
EXTT6=
EXTT7=
EXTT8=
EXTT9=
PLAYORDER=
